<svg width="19" height="18" viewBox="0 0 19 18" fill="none" xmlns="http://www.w3.org/2000/svg">
<g clip-path="url(#clip0_1420_3358)">
<path d="M16.2289 0.367188C17.4953 0.539453 18.4314 1.42627 18.6137 2.62642V15.3714C18.424 16.5834 17.4795 17.4905 16.1751 17.6285L11.1394 17.6315V11.4946L13.8906 11.4928L14.245 9.4709H11.1389L11.1398 7.44853C11.1552 6.88032 11.6083 6.45186 12.2077 6.43691H14.3428V4.41323H11.6761C10.1945 4.42246 9.01348 5.54175 9.0042 6.94448V9.47134L6.86856 9.4709V11.4941H9.0042V17.6315L2.83013 17.6289C1.51506 17.4905 0.549292 16.5597 0.386475 15.3191L0.420801 2.67959C0.424048 1.4333 1.57629 0.541211 2.77585 0.367627H16.2289V0.367188ZM15.4102 7.4481H12.2077V8.45884L15.5072 8.4606L14.7965 12.5049L12.2077 12.5058V16.6199L15.9771 16.6116C16.8491 16.6098 17.5064 15.9445 17.5459 15.1306L17.5403 2.86724C17.5403 2.03887 16.8032 1.38145 15.9409 1.38145H3.06438C2.20205 1.38145 1.46543 2.03931 1.46497 2.86724L1.4594 15.1311C1.49929 15.9427 2.15566 16.6103 3.02913 16.612L7.93684 16.6204V12.5062H5.8012V8.46016H7.93638L7.93777 6.98052C7.92432 5.01045 9.5947 3.40557 11.6807 3.40425L15.4116 3.40161L15.4107 7.44897L15.4102 7.4481Z" fill="#303030"/>
</g>
<defs>
<clipPath id="clip0_1420_3358">
<rect width="19" height="18" fill="white"/>
</clipPath>
</defs>
</svg>
